<svg width="802" height="220" viewBox="0 0 802 220" fill="none" xmlns="http://www.w3.org/2000/svg">
<path d="M798.915 200.396L801.537 207.677H767.167L765.71 204.182L752.894 170.686L749.69 163.113H640.172L636.968 170.686L623.569 204.182L622.113 207.677H608.132L611.045 200.396L687.358 12.2334L692.018 0.29126H719.981L721.437 3.78654L798.915 200.396ZM645.415 150.297H744.739L742.117 143.015L695.514 24.4669L645.997 148.258L645.415 150.297Z" fill="black"/>
<path d="M588.71 80.1C588.71 89.6149 587.351 98.5473 584.632 106.897C581.914 115.247 577.739 122.917 572.108 129.908C566.476 136.704 559.486 142.335 551.136 146.801L545.602 149.714L578.516 199.231L584.05 207.677H545.019L543.272 205.056L518.513 165.734C515.018 160.297 510.066 157.676 503.658 157.87C501.522 157.87 499.678 157.87 498.124 157.87H447.734V163.404V202.143V207.677H416.277V12.2334V0.29126H437.248H498.124C513.853 0.29126 528.611 3.78654 542.398 10.7771C556.379 17.5734 567.544 26.9913 575.894 39.0305C584.438 51.0698 588.71 63.9829 588.71 77.7698V80.1ZM498.124 147.675C510.164 147.675 520.649 144.665 529.582 138.646C538.708 132.432 545.505 124.276 549.971 114.179C554.631 104.081 556.961 92.8189 556.961 80.3913V77.7698C556.961 68.4491 555.602 59.7109 552.884 51.5553C550.359 43.3996 546.573 36.312 541.524 30.2923C536.669 24.0785 530.456 19.224 522.882 15.7287C515.504 12.2334 507.251 10.4858 498.124 10.4858H447.734V147.675H498.124Z" fill="black"/>
<path d="M364.382 0H376.907V90.2945C376.907 108.548 370.013 124.179 356.227 137.189C342.44 150.005 325.837 156.413 306.419 156.413H298.263C285.447 156.413 273.117 153.501 261.272 147.675C249.621 141.85 240.106 133.791 232.727 123.5C225.348 113.208 221.659 102.14 221.659 90.2945V12.2335L221.95 0H253.699V90.2945C253.699 99.4211 255.349 107.674 258.65 115.053C262.145 122.432 267.291 128.354 274.088 132.82C281.078 137.287 289.137 139.52 298.263 139.52H312.536C326.711 139.52 338.847 134.762 348.945 125.247C359.042 115.538 364.091 103.887 364.091 90.2945V12.2335L364.382 0ZM285.156 208.551C308.264 208.551 329.43 203.114 348.654 192.24L354.188 202.143C333.41 213.988 310.497 219.911 285.447 219.911C241.756 219.911 203.308 201.075 170.103 163.404H50.6815L47.7687 170.977L35.8265 204.182L34.3702 207.969H0L2.62145 200.396L74.5658 3.78655L76.0222 0.291271H108.645C109.421 3.204 110.295 6.60217 111.266 10.4858C113.985 20.0007 117.092 29.904 120.587 40.1956C124.082 50.2931 128.743 62.0411 134.568 75.4396C140.393 88.644 146.704 101.266 153.501 113.305C160.297 125.15 168.453 137.092 177.968 149.132C187.483 160.977 197.386 171.171 207.677 179.715C218.163 188.259 230.105 195.25 243.504 200.687C256.903 205.93 270.787 208.551 285.156 208.551ZM55.3418 150.588H159.617C137.287 121.267 117.771 79.3233 101.072 24.7582L57.672 143.306L55.3418 150.588Z" fill="black"/>
</svg>
